<?xml version="1.0" encoding="iso-8859-1"?>
<!-- Generator: Adobe Illustrator 16.0.0, SVG Export Plug-In . SVG Version: 6.00 Build 0)  -->
<!DOCTYPE svg PUBLIC "-//W3C//DTD SVG 1.1//EN" "http://www.w3.org/Graphics/SVG/1.1/DTD/svg11.dtd">
<svg version="1.1" id="Capa_1" xmlns="http://www.w3.org/2000/svg" xmlns:xlink="http://www.w3.org/1999/xlink" x="0px" y="0px"
	 width="112.753px" height="112.753px" viewBox="0 0 112.753 112.753" style="enable-background:new 0 0 112.753 112.753;"
	 xml:space="preserve">
<g>
	<path d="M30.145,35.045c0,1.669-1.362,3.026-3.026,3.026c-1.324,0-2.577,0.352-3.759,1.028c-2.754,1.605-4.466,4.738-4.466,8.208
		c0,0.993,0.151,1.974,0.458,2.923c0.039,0.109,0.201,0.635,0.213,0.756c0.047,0.109,0.618,0.958,1.041,1.623
		c1.338,2.065,3.153,4.896,4.377,8.579c0.52,1.59-0.358,3.298-1.93,3.818c-0.328,0.112-0.629,0.153-0.945,0.153
		c-1.265,0-2.45-0.815-2.882-2.092c-0.96-2.943-2.415-5.189-3.691-7.188c-0.641-0.993-1.489-2.382-1.64-2.728
		c-0.071-0.169-0.225-0.816-0.26-1.005c-0.543-1.641-0.792-3.23-0.792-4.853c0-5.63,2.882-10.769,7.48-13.456
		c2.119-1.215,4.4-1.848,6.797-1.848C28.782,32.019,30.145,33.36,30.145,35.045z M108.85,99.23l-0.012,10.497
		c0,1.667-1.348,3.026-3.026,3.026h-39.33c-1.673,0-3.023-1.359-3.023-3.026v-8.381c-1.428,0.732-2.917,1.406-4.478,1.892
		c-0.311,0.094-0.606,0.136-0.901,0.136c-0.638,0-1.274-0.201-1.806-0.585c-0.769-0.58-1.221-1.479-1.221-2.441
		c0.023-15.806-6.455-26.557-12.259-26.557c-5.816,0-12.274,10.733-12.274,26.16c0,0.958-0.449,2.069-1.229,2.637
		c-0.78,0.573-1.773,0.934-2.692,0.639c-9.8-3.098-16.125-10.604-16.125-19.128c0.556-5.722,1.091-15.368,0.151-18.217
		c-0.612-1.832-1.676-3.476-2.704-5.083c-1.253-1.928-2.553-3.937-3.05-6.325c-0.697-2.143-1.09-4.661-1.09-7.19
		c0-8.848,4.613-17.02,12.014-21.311c8.583-4.977,19.848-3.535,27,3.206c6.277-5.919,15.708-7.746,23.711-4.758l0.236-5.633
		c0.083-1.629,1.389-2.899,3.026-2.899h5.805V3.026c0-1.67,1.359-3.026,3.026-3.026h15.131c0.816,0,1.584,0.319,2.146,0.883
		c0.561,0.562,0.88,1.336,0.88,2.143l-0.012,12.862h5.545c1.631,0,2.955,1.276,3.026,2.899l3.499,78.847
		c0.118,0.307,0.159,0.626,0.159,0.969C108.968,98.845,108.885,99.029,108.85,99.23z M81.612,15.542h9.067l0.012-9.46h-9.079V15.542
		z M72.652,21.964l-3.026,73.637h33.029l-3.274-73.637H72.652z M60.979,95.861c0.966-0.521,1.832-1.158,2.657-1.809l2.586-63.056
		c-6.981-3.724-16.013-1.812-21.072,4.563c-0.57,0.718-1.434,1.138-2.367,1.138c-0.931,0-1.797-0.425-2.379-1.138
		c-5.169-6.525-14.525-8.426-21.583-4.335c-5.556,3.215-9.005,9.383-9.005,16.071c0,1.912,0.295,3.831,0.883,5.677
		c0.352,1.561,1.253,2.943,2.293,4.563c1.173,1.832,2.518,3.901,3.378,6.466c1.611,4.895,0.381,17.862,0.127,20.416
		c0.023,4.492,3.109,8.795,8.133,11.479c1.17-16.23,8.736-28.135,18.17-28.135C52.26,67.761,59.864,79.807,60.979,95.861z
		 M102.785,106.701l0.012-5.047H69.508v5.047H102.785z"/>
</g>
<g>
</g>
<g>
</g>
<g>
</g>
<g>
</g>
<g>
</g>
<g>
</g>
<g>
</g>
<g>
</g>
<g>
</g>
<g>
</g>
<g>
</g>
<g>
</g>
<g>
</g>
<g>
</g>
<g>
</g>
</svg>
